<?xml version="1.0" encoding="UTF-8"?>
<!-- Generator: Adobe Illustrator 16.0.0, SVG Export Plug-In . SVG Version: 6.00 Build 0)  -->
<!DOCTYPE svg PUBLIC "-//W3C//DTD SVG 1.1//EN" "http://www.w3.org/Graphics/SVG/1.1/DTD/svg11.dtd">
<svg version="1.1" id="Layer_1" xmlns="http://www.w3.org/2000/svg" xmlns:xlink="http://www.w3.org/1999/xlink" x="0px" y="0px" width="256px" height="256px" viewBox="0 0 256 256" enable-background="new 0 0 256 256" xml:space="preserve">
<rect fill="#A05C94" width="256" height="256"/>
<path opacity="0.7" fill-rule="evenodd" clip-rule="evenodd" fill="#73467A" d="M195.5,145.75l-27.875,27.875  c0,0-6.313-11.628-16.25-16.25c-10.75-5-12.75-6.5-12.75-6.5l28.519-28.519L195.5,145.75z"/>
<polygon opacity="0.7" fill-rule="evenodd" clip-rule="evenodd" fill="#73467A" points="239.75,93.625 197.375,136 218.375,92.75   "/>
<path opacity="0.7" fill-rule="evenodd" clip-rule="evenodd" fill="#73467A" d="M60.75,159L0,220.5V256h161.667  c0,0,20.083-19.125,30.958-28.875c-20.667,1-127.958,5.875-130.958-6.125C56.037,198.479,60.75,159,60.75,159z"/>
<polygon opacity="0.7" fill-rule="evenodd" clip-rule="evenodd" fill="#73467A" points="0,136.754 62.268,74.487 35.597,25.955   0,61.553 "/>
<polygon opacity="0.7" fill-rule="evenodd" clip-rule="evenodd" fill="#73467A" points="191.5,137.5 211,90 236.455,85.282   247.25,74.487 198.764,25.955 139.693,85.026 "/>
<path opacity="0.7" fill-rule="evenodd" clip-rule="evenodd" fill="#73467A" d="M18.625,84c-2.688,0-3.969,1.813-3.969,1.813  l-14.672,14.672v113.464l70.885-70.885L68,131.75L47,89L18.625,84z"/>
<g>
	<path fill-rule="evenodd" clip-rule="evenodd" fill="#04FF6F" d="M198.871,74.499c0-16.231,0-32.265,0-48.438   c16.154,0,32.186,0,48.423,0c0,16.081,0,32.17,0,48.438C231.245,74.499,215.154,74.499,198.871,74.499z"/>
	<path fill-rule="evenodd" clip-rule="evenodd" fill="#FFFFFF" d="M127.777,66.396c-15.231-0.165-27.415-12.459-27.268-27.517   c0.147-15.152,12.529-27.271,27.686-27.099c15.016,0.169,27.156,12.531,27.03,27.523C155.099,54.314,142.696,66.557,127.777,66.396   z"/>
	<path fill-rule="evenodd" clip-rule="evenodd" fill="#FFDE00" d="M8.939,74.487c8.912-16.225,17.641-32.116,26.658-48.532   c8.976,16.333,17.747,32.293,26.67,48.532C44.395,74.487,26.86,74.487,8.939,74.487z"/>
	<path fill-rule="evenodd" clip-rule="evenodd" fill="#FFFFFF" d="M235.741,83.953c-8.444-0.016-16.89,0.06-25.332-0.07   c-1.93-0.029-2.959,0.582-3.73,2.283c-3.579,7.899-7.253,15.756-10.862,23.643c-1.982,4.335-3.904,8.699-5.971,13.306   c-0.838-0.949-1.489-1.657-2.108-2.393c-8.004-9.497-16.023-18.981-23.997-28.504c-6.613-7.9-14.793-13.239-25.124-14.386   c-5.779-0.641-11.673-0.47-17.507-0.333c-11.353,0.266-20.693,4.981-28.014,13.578c-8.58,10.074-17.031,20.255-25.511,30.414   c-0.441,0.527-0.628,1.27-0.934,1.912c-0.942-1.12-1.152-1.558-1.354-1.998c-5.355-11.722-10.727-23.438-16.048-35.175   c-0.756-1.667-1.739-2.366-3.694-2.336c-8.442,0.129-16.887,0.045-25.33,0.071c-0.965,0.003-1.958,0.094-2.887,0.336   c-3.469,0.903-4.836,4.418-2.963,7.49c1.242,2.036,3.197,2.617,5.421,2.623c4.384,0.012,8.775,0.161,13.149-0.039   c2.024-0.092,2.852,0.693,3.552,2.399c1.722,4.199,3.608,8.331,5.438,12.486c4.606,10.459,9.188,20.931,13.837,31.371   c3.302,7.416,10.154,8.367,15.32,2.185c0.885-1.059,1.756-2.13,2.645-3.186c3.85-4.572,7.705-9.143,11.885-14.102   c1.847,11.966,5.474,35.466,5.474,35.466l73.544-0.025c0,0,3.634-23.573,5.491-35.624c1.14,1.337,1.874,2.188,2.6,3.049   c4.29,5.089,8.545,10.208,12.873,15.265c4.203,4.91,11.219,3.974,14.047-1.828c0.32-0.654,0.593-1.333,0.887-2   c6.372-14.466,12.769-28.921,19.078-43.414c0.648-1.49,1.382-2.087,3.039-2.041c4.301,0.123,8.605,0.039,12.908,0.047   c4.36,0.01,6.951-1.954,7.041-5.352C242.69,85.833,240.2,83.961,235.741,83.953z"/>
</g>
<g>
	<g>
		<path fill="#9B5C8F" d="M124.419,227.714H74.385c-8.429,0-15.286-6.857-15.286-15.286v-40.952    c-0.032-4.038,1.534-7.873,4.412-10.772c2.887-2.91,6.729-4.513,10.819-4.513h107.285c8.429,0,15.286,6.856,15.286,15.285v40.952    c0,8.429-6.857,15.286-15.286,15.286h-34.007l6.826,16.711L124.419,227.714z"/>
		<path fill="#FFFFFF" d="M181.615,159.19c6.79,0,12.286,5.495,12.286,12.285v40.952c0,6.79-5.496,12.286-12.286,12.286h-38.473    l5.282,12.932l-23.227-12.932H74.385c-6.791,0-12.286-5.496-12.286-12.286v-40.952c-0.054-6.735,5.442-12.285,12.231-12.285    H181.615 M181.615,153.19H74.33c-4.896,0-9.495,1.918-12.949,5.399c-3.445,3.473-5.32,8.065-5.282,12.934v40.904    c0,10.083,8.203,18.286,18.286,18.286h49.255l21.865,12.174l14.938,8.317l-6.465-15.828l-1.905-4.663h29.541    c10.083,0,18.286-8.203,18.286-18.286v-40.952C199.901,161.394,191.698,153.19,181.615,153.19L181.615,153.19z"/>
	</g>
	<path fill="#FFFFFF" d="M68.674,170.343c0.754-1.023,1.885-1.562,3.395-1.67c2.747-0.215,4.309,1.077,4.688,3.881   c1.668,11.262,3.502,20.799,5.442,28.611l11.799-22.47c1.079-2.048,2.427-3.125,4.043-3.232c2.371-0.162,3.824,1.347,4.417,4.527   c1.346,7.165,3.073,13.255,5.121,18.428c1.399-13.686,3.771-23.55,7.111-29.637c0.81-1.51,1.996-2.265,3.557-2.37   c1.24-0.109,2.372,0.268,3.395,1.075c1.024,0.811,1.563,1.833,1.671,3.075c0.053,0.967-0.108,1.775-0.54,2.586   c-2.101,3.877-3.824,10.398-5.225,19.45c-1.348,8.782-1.834,15.628-1.51,20.53c0.107,1.348-0.107,2.533-0.646,3.557   c-0.646,1.186-1.614,1.833-2.855,1.939c-1.401,0.108-2.856-0.54-4.257-1.995c-5.012-5.118-9-12.771-11.909-22.954   c-3.502,6.899-6.087,12.069-7.759,15.518c-3.18,6.092-5.874,9.218-8.138,9.378c-1.455,0.108-2.692-1.131-3.771-3.716   c-2.747-7.06-5.711-20.693-8.889-40.901C67.65,172.554,67.918,171.313,68.674,170.343z"/>
	<path fill="#FFFFFF" d="M184.524,178.804c-1.938-3.395-4.795-5.441-8.621-6.25c-1.024-0.217-1.992-0.325-2.909-0.325   c-5.174,0-9.375,2.695-12.662,8.082c-2.804,4.583-4.203,9.647-4.203,15.198c0,4.148,0.861,7.704,2.584,10.668   c1.941,3.396,4.8,5.443,8.623,6.251c1.024,0.215,1.994,0.324,2.911,0.324c5.226,0,9.429-2.695,12.662-8.083   c2.801-4.632,4.204-9.699,4.204-15.251C187.113,185.216,186.252,181.713,184.524,178.804L184.524,178.804z M177.737,193.73   c-0.755,3.557-2.103,6.196-4.097,7.974c-1.562,1.401-3.018,1.995-4.365,1.726c-1.293-0.271-2.372-1.4-3.179-3.503   c-0.646-1.671-0.968-3.341-0.968-4.904c0-1.348,0.106-2.693,0.376-3.933c0.483-2.209,1.398-4.365,2.855-6.415   c1.778-2.639,3.665-3.715,5.604-3.338c1.294,0.268,2.371,1.401,3.18,3.502c0.646,1.67,0.971,3.342,0.971,4.903   C178.115,191.143,177.953,192.489,177.737,193.73L177.737,193.73z"/>
	<path fill="#FFFFFF" d="M150.741,178.804c-1.941-3.395-4.85-5.441-8.623-6.25c-1.022-0.217-1.994-0.325-2.911-0.325   c-5.172,0-9.375,2.695-12.661,8.082c-2.801,4.583-4.203,9.647-4.203,15.198c0,4.148,0.861,7.704,2.589,10.668   c1.936,3.396,4.794,5.443,8.619,6.251c1.024,0.215,1.992,0.324,2.91,0.324c5.225,0,9.431-2.695,12.661-8.083   c2.803-4.632,4.204-9.699,4.204-15.251C153.326,185.216,152.465,181.713,150.741,178.804L150.741,178.804z M143.951,193.73   c-0.755,3.557-2.103,6.196-4.095,7.974c-1.562,1.401-3.02,1.995-4.367,1.726c-1.294-0.271-2.37-1.4-3.18-3.503   c-0.646-1.671-0.97-3.341-0.97-4.904c0-1.348,0.11-2.693,0.378-3.933c0.485-2.209,1.401-4.365,2.857-6.415   c1.777-2.639,3.663-3.715,5.604-3.338c1.292,0.268,2.372,1.401,3.178,3.502c0.646,1.67,0.969,3.342,0.969,4.903   C144.326,191.143,144.219,192.489,143.951,193.73L143.951,193.73z"/>
</g>
</svg>